<svg id="my-svg" width="100%" xmlns="http://www.w3.org/2000/svg" xmlns:xlink="http://www.w3.org/1999/xlink" style="max-width: 3590.15px; background-color: white;" viewBox="-8 -8 3590.1484375 917.4375" role="graphics-document document" aria-roledescription="flowchart-v2"><style>#my-svg{font-family:"trebuchet ms",verdana,arial,sans-serif;font-size:14px;fill:#333;}#my-svg .error-icon{fill:hsl(220.5882352941, 100%, 98.3333333333%);}#my-svg .error-text{fill:rgb(8.5000000002, 5.7500000001, 0);stroke:rgb(8.5000000002, 5.7500000001, 0);}#my-svg .edge-thickness-normal{stroke-width:2px;}#my-svg .edge-thickness-thick{stroke-width:3.5px;}#my-svg .edge-pattern-solid{stroke-dasharray:0;}#my-svg .edge-pattern-dashed{stroke-dasharray:3;}#my-svg .edge-pattern-dotted{stroke-dasharray:2;}#my-svg .marker{fill:#0b0b0b;stroke:#0b0b0b;}#my-svg .marker.cross{stroke:#0b0b0b;}#my-svg svg{font-family:"trebuchet ms",verdana,arial,sans-serif;font-size:14px;}#my-svg .label{font-family:"trebuchet ms",verdana,arial,sans-serif;color:#333;}#my-svg .cluster-label text{fill:rgb(8.5000000002, 5.7500000001, 0);}#my-svg .cluster-label span,#my-svg p{color:rgb(8.5000000002, 5.7500000001, 0);}#my-svg .label text,#my-svg span,#my-svg p{fill:#333;color:#333;}#my-svg .node rect,#my-svg .node circle,#my-svg .node ellipse,#my-svg .node polygon,#my-svg .node path{fill:#fff4dd;stroke:hsl(40.5882352941, 60%, 83.3333333333%);stroke-width:1px;}#my-svg .flowchart-label text{text-anchor:middle;}#my-svg .node .katex path{fill:#000;stroke:#000;stroke-width:1px;}#my-svg .node .label{text-align:center;}#my-svg .node.clickable{cursor:pointer;}#my-svg .arrowheadPath{fill:#0b0b0b;}#my-svg .edgePath .path{stroke:#0b0b0b;stroke-width:2.0px;}#my-svg .flowchart-link{stroke:#0b0b0b;fill:none;}#my-svg .edgeLabel{background-color:hsl(-79.4117647059, 100%, 93.3333333333%);text-align:center;}#my-svg .edgeLabel rect{opacity:0.5;background-color:hsl(-79.4117647059, 100%, 93.3333333333%);fill:hsl(-79.4117647059, 100%, 93.3333333333%);}#my-svg .labelBkg{background-color:rgba(243.9999999999, 220.9999999998, 255, 0.5);}#my-svg .cluster rect{fill:hsl(220.5882352941, 100%, 98.3333333333%);stroke:hsl(220.5882352941, 60%, 88.3333333333%);stroke-width:1px;}#my-svg .cluster text{fill:rgb(8.5000000002, 5.7500000001, 0);}#my-svg .cluster span,#my-svg p{color:rgb(8.5000000002, 5.7500000001, 0);}#my-svg div.mermaidTooltip{position:absolute;text-align:center;max-width:200px;padding:2px;font-family:"trebuchet ms",verdana,arial,sans-serif;font-size:12px;background:hsl(220.5882352941, 100%, 98.3333333333%);border:1px solid hsl(220.5882352941, 60%, 88.3333333333%);border-radius:2px;pointer-events:none;z-index:100;}#my-svg .flowchartTitleText{text-anchor:middle;font-size:18px;fill:#333;}#my-svg :root{--mermaid-font-family:"trebuchet ms",verdana,arial,sans-serif;}#my-svg .title&gt;*{fill:rgb(255, 255, 255)!important;stroke:rgb(255, 255, 255)!important;color:rgb(27, 38, 49)!important;font-weight:bold!important;}#my-svg .title span{fill:rgb(255, 255, 255)!important;stroke:rgb(255, 255, 255)!important;color:rgb(27, 38, 49)!important;font-weight:bold!important;}#my-svg .title tspan{fill:rgb(27, 38, 49)!important;}#my-svg .startend&gt;*{fill:rgb(130, 224, 170)!important;stroke:rgb(30, 132, 73)!important;stroke-width:2px!important;color:rgb(11, 46, 19)!important;}#my-svg .startend span{fill:rgb(130, 224, 170)!important;stroke:rgb(30, 132, 73)!important;stroke-width:2px!important;color:rgb(11, 46, 19)!important;}#my-svg .startend tspan{fill:rgb(11, 46, 19)!important;}#my-svg .guest&gt;*{fill:rgb(214, 234, 248)!important;stroke:rgb(46, 134, 193)!important;stroke-width:1px!important;color:rgb(11, 46, 77)!important;}#my-svg .guest span{fill:rgb(214, 234, 248)!important;stroke:rgb(46, 134, 193)!important;stroke-width:1px!important;color:rgb(11, 46, 77)!important;}#my-svg .guest tspan{fill:rgb(11, 46, 77)!important;}#my-svg .member&gt;*{fill:rgb(213, 245, 227)!important;stroke:rgb(34, 153, 84)!important;stroke-width:1px!important;color:rgb(11, 61, 36)!important;}#my-svg .member span{fill:rgb(213, 245, 227)!important;stroke:rgb(34, 153, 84)!important;stroke-width:1px!important;color:rgb(11, 61, 36)!important;}#my-svg .member tspan{fill:rgb(11, 61, 36)!important;}#my-svg .admin&gt;*{fill:rgb(253, 235, 208)!important;stroke:rgb(202, 111, 30)!important;stroke-width:1px!important;color:rgb(92, 58, 14)!important;}#my-svg .admin span{fill:rgb(253, 235, 208)!important;stroke:rgb(202, 111, 30)!important;stroke-width:1px!important;color:rgb(92, 58, 14)!important;}#my-svg .admin tspan{fill:rgb(92, 58, 14)!important;}#my-svg .authNode&gt;*{fill:rgb(252, 243, 207)!important;stroke:rgb(212, 172, 13)!important;stroke-width:1px!important;color:rgb(92, 74, 5)!important;}#my-svg .authNode span{fill:rgb(252, 243, 207)!important;stroke:rgb(212, 172, 13)!important;stroke-width:1px!important;color:rgb(92, 74, 5)!important;}#my-svg .authNode tspan{fill:rgb(92, 74, 5)!important;}#my-svg .semantic&gt;*{fill:rgb(232, 218, 239)!important;stroke:rgb(125, 60, 152)!important;stroke-width:1px!important;color:rgb(59, 30, 77)!important;}#my-svg .semantic span{fill:rgb(232, 218, 239)!important;stroke:rgb(125, 60, 152)!important;stroke-width:1px!important;color:rgb(59, 30, 77)!important;}#my-svg .semantic tspan{fill:rgb(59, 30, 77)!important;}#my-svg .database&gt;*{fill:rgb(174, 182, 191)!important;stroke:rgb(27, 38, 49)!important;stroke-width:2px!important;color:rgb(27, 38, 49)!important;}#my-svg .database span{fill:rgb(174, 182, 191)!important;stroke:rgb(27, 38, 49)!important;stroke-width:2px!important;color:rgb(27, 38, 49)!important;}#my-svg .database tspan{fill:rgb(27, 38, 49)!important;}#my-svg .errorNode&gt;*{fill:rgb(250, 219, 216)!important;stroke:rgb(192, 57, 43)!important;stroke-width:1px!important;color:rgb(92, 26, 19)!important;}#my-svg .errorNode span{fill:rgb(250, 219, 216)!important;stroke:rgb(192, 57, 43)!important;stroke-width:1px!important;color:rgb(92, 26, 19)!important;}#my-svg .errorNode tspan{fill:rgb(92, 26, 19)!important;}#my-svg .decisionNode&gt;*{fill:rgb(255, 255, 255)!important;stroke:rgb(93, 109, 126)!important;stroke-width:1.5px!important;color:rgb(27, 38, 49)!important;}#my-svg .decisionNode span{fill:rgb(255, 255, 255)!important;stroke:rgb(93, 109, 126)!important;stroke-width:1.5px!important;color:rgb(27, 38, 49)!important;}#my-svg .decisionNode tspan{fill:rgb(27, 38, 49)!important;}#my-svg .tech&gt;*{fill:rgb(234, 236, 238)!important;stroke:rgb(52, 73, 94)!important;stroke-width:1px!important;color:rgb(27, 38, 49)!important;}#my-svg .tech span{fill:rgb(234, 236, 238)!important;stroke:rgb(52, 73, 94)!important;stroke-width:1px!important;color:rgb(27, 38, 49)!important;}#my-svg .tech tspan{fill:rgb(27, 38, 49)!important;}#my-svg .connector&gt;*{fill:rgb(238, 241, 245)!important;stroke:rgb(136, 149, 163)!important;stroke-width:1px!important;stroke-dasharray:4,3!important;color:rgb(60, 69, 80)!important;}#my-svg .connector span{fill:rgb(238, 241, 245)!important;stroke:rgb(136, 149, 163)!important;stroke-width:1px!important;stroke-dasharray:4,3!important;color:rgb(60, 69, 80)!important;}#my-svg .connector tspan{fill:rgb(60, 69, 80)!important;}</style><g><marker id="my-svg_flowchart-pointEnd" class="marker flowchart" viewBox="0 0 10 10" refX="6" refY="5" markerUnits="userSpaceOnUse" markerWidth="12" markerHeight="12" orient="auto"><path d="M 0 0 L 10 5 L 0 10 z" class="arrowMarkerPath" style="stroke-width: 1; stroke-dasharray: 1, 0;"/></marker><marker id="my-svg_flowchart-pointStart" class="marker flowchart" viewBox="0 0 10 10" refX="4.5" refY="5" markerUnits="userSpaceOnUse" markerWidth="12" markerHeight="12" orient="auto"><path d="M 0 5 L 10 10 L 10 0 z" class="arrowMarkerPath" style="stroke-width: 1; stroke-dasharray: 1, 0;"/></marker><marker id="my-svg_flowchart-circleEnd" class="marker flowchart" viewBox="0 0 10 10" refX="11" refY="5" markerUnits="userSpaceOnUse" markerWidth="11" markerHeight="11" orient="auto"><circle cx="5" cy="5" r="5" class="arrowMarkerPath" style="stroke-width: 1; stroke-dasharray: 1, 0;"/></marker><marker id="my-svg_flowchart-circleStart" class="marker flowchart" viewBox="0 0 10 10" refX="-1" refY="5" markerUnits="userSpaceOnUse" markerWidth="11" markerHeight="11" orient="auto"><circle cx="5" cy="5" r="5" class="arrowMarkerPath" style="stroke-width: 1; stroke-dasharray: 1, 0;"/></marker><marker id="my-svg_flowchart-crossEnd" class="marker cross flowchart" viewBox="0 0 11 11" refX="12" refY="5.2" markerUnits="userSpaceOnUse" markerWidth="11" markerHeight="11" orient="auto"><path d="M 1,1 l 9,9 M 10,1 l -9,9" class="arrowMarkerPath" style="stroke-width: 2; stroke-dasharray: 1, 0;"/></marker><marker id="my-svg_flowchart-crossStart" class="marker cross flowchart" viewBox="0 0 11 11" refX="-1" refY="5.2" markerUnits="userSpaceOnUse" markerWidth="11" markerHeight="11" orient="auto"><path d="M 1,1 l 9,9 M 10,1 l -9,9" class="arrowMarkerPath" style="stroke-width: 2; stroke-dasharray: 1, 0;"/></marker><g class="root"><g class="clusters"><g class="cluster default flowchart-label" id="ADMIN"><rect style="" rx="0" ry="0" x="1155.75" y="82" width="2085.8984375" height="731.484375"/><g class="cluster-label" transform="translate(2123.69140625, 82)"><foreignObject width="150.015625" height="16"><div xmlns="http://www.w3.org/1999/xhtml" style="display: inline-block; white-space: nowrap;"><span class="nodeLabel">Administrator Functions</span></div></foreignObject></g></g></g><g class="edgePaths"><path d="M2484.035,32L2484.035,36.167C2484.035,40.333,2484.035,48.667,2484.035,57C2484.035,65.333,2484.035,73.667,2484.101,81.2C2484.167,88.734,2484.299,95.467,2484.365,98.834L2484.431,102.201" id="L-FromAuth-CheckPermission-0" class="edge-thickness-normal edge-pattern-solid flowchart-link LS-FromAuth LE-CheckPermission" style="fill:none;" marker-end="url(#my-svg_flowchart-pointEnd)"/><path d="M2390.714,257.164L2319.608,278.217C2248.501,299.271,2106.288,341.377,2035.181,367.048C1964.074,392.718,1964.074,401.951,1964.074,406.568L1964.074,411.184" id="L-CheckPermission-AdminDash-0" class="edge-thickness-normal edge-pattern-solid flowchart-link LS-CheckPermission LE-AdminDash" style="fill:none;" marker-end="url(#my-svg_flowchart-pointEnd)"/><path d="M1964.074,447.484L1964.074,451.651C1964.074,455.818,1964.074,464.151,1964.074,471.601C1964.074,479.051,1964.074,485.618,1964.074,488.901L1964.074,492.184" id="L-AdminDash-SelectMgmt-0" class="edge-thickness-normal edge-pattern-solid flowchart-link LS-AdminDash LE-SelectMgmt" style="fill:none;" marker-end="url(#my-svg_flowchart-pointEnd)"/><path d="M2583.11,252.41L2676.333,274.255C2769.556,296.101,2956.003,339.793,3049.226,369.722C3142.449,399.651,3142.449,415.818,3142.449,430.651C3142.449,445.484,3142.449,458.984,3142.449,472.484C3142.449,485.984,3142.449,499.484,3142.449,514.318C3142.449,529.151,3142.449,545.318,3142.449,561.568C3142.449,577.818,3142.449,594.151,3142.449,609.151C3142.449,624.151,3142.449,637.818,3142.449,651.401C3142.449,664.984,3142.449,678.484,3142.449,691.984C3142.449,705.484,3142.449,718.984,3166.014,729.753C3189.578,740.521,3236.708,748.557,3260.272,752.575L3283.837,756.593" id="L-CheckPermission-AccessDenied-0" class="edge-thickness-normal edge-pattern-solid flowchart-link LS-CheckPermission LE-AccessDenied" style="fill:none;" marker-end="url(#my-svg_flowchart-pointEnd)"/><path d="M3379.961,788.484L3379.961,792.651C3379.961,796.818,3379.961,805.151,3379.961,813.484C3379.961,821.818,3379.961,830.151,3286.723,841.343C3193.486,852.535,3007.011,866.586,2913.774,873.611L2820.536,880.637" id="L-AccessDenied-End-0" class="edge-thickness-normal edge-pattern-solid flowchart-link LS-AccessDenied LE-End" style="fill:none;" marker-end="url(#my-svg_flowchart-pointEnd)"/><path d="M1866.199,519.354L1758.295,526.375C1650.391,533.397,1434.582,547.441,1250.448,560.35C1066.314,573.26,913.854,585.036,837.624,590.923L761.394,596.811" id="L-SelectMgmt-ToCRUD-0" class="edge-thickness-normal edge-pattern-solid flowchart-link LS-SelectMgmt LE-ToCRUD" style="fill:none;" marker-end="url(#my-svg_flowchart-pointEnd)"/><path d="M3288.034,626.484L3252.262,630.651C3216.49,634.818,3144.946,643.151,2989.706,653.32C2834.466,663.489,2595.53,675.494,2476.062,681.496L2356.594,687.498" id="L-FromCRUD-FinishMgmt-0" class="edge-thickness-normal edge-pattern-solid flowchart-link LS-FromCRUD LE-FinishMgmt" style="fill:none;" marker-end="url(#my-svg_flowchart-pointEnd)"/><path d="M2061.949,517.545L2219.102,524.868C2376.255,532.192,2690.561,546.838,2847.714,558.861C3004.867,570.884,3004.867,580.284,3004.867,584.984L3004.867,589.684" id="L-SelectMgmt-ManageTypes-0" class="edge-thickness-normal edge-pattern-solid flowchart-link LS-SelectMgmt LE-ManageTypes" style="fill:none;" marker-end="url(#my-svg_flowchart-pointEnd)"/><path d="M3004.867,625.984L3004.867,630.234C3004.867,634.484,3004.867,642.984,2896.821,653.167C2788.776,663.35,2572.684,675.216,2464.639,681.148L2356.593,687.081" id="L-ManageTypes-FinishMgmt-0" class="edge-thickness-normal edge-pattern-solid flowchart-link LS-ManageTypes LE-FinishMgmt" style="fill:none;" marker-end="url(#my-svg_flowchart-pointEnd)"/><path d="M2061.949,518.778L2182.183,525.896C2302.417,533.014,2542.884,547.249,2663.118,559.067C2783.352,570.884,2783.352,580.284,2783.352,584.984L2783.352,589.684" id="L-SelectMgmt-ManageRoomTypes-0" class="edge-thickness-normal edge-pattern-solid flowchart-link LS-SelectMgmt LE-ManageRoomTypes" style="fill:none;" marker-end="url(#my-svg_flowchart-pointEnd)"/><path d="M2783.352,625.984L2783.352,630.234C2783.352,634.484,2783.352,642.984,2712.224,652.817C2641.096,662.649,2498.84,673.813,2427.712,679.395L2356.585,684.977" id="L-ManageRoomTypes-FinishMgmt-0" class="edge-thickness-normal edge-pattern-solid flowchart-link LS-ManageRoomTypes LE-FinishMgmt" style="fill:none;" marker-end="url(#my-svg_flowchart-pointEnd)"/><path d="M2061.949,520.447L2151.658,527.286C2241.367,534.126,2420.785,547.805,2510.494,559.345C2600.203,570.884,2600.203,580.284,2600.203,584.984L2600.203,589.684" id="L-SelectMgmt-ManageAmenities-0" class="edge-thickness-normal edge-pattern-solid flowchart-link LS-SelectMgmt LE-ManageAmenities" style="fill:none;" marker-end="url(#my-svg_flowchart-pointEnd)"/><path d="M2600.203,625.984L2600.203,630.234C2600.203,634.484,2600.203,642.984,2559.596,652.174C2518.989,661.365,2437.776,671.245,2397.169,676.185L2356.562,681.125" id="L-ManageAmenities-FinishMgmt-0" class="edge-thickness-normal edge-pattern-solid flowchart-link LS-ManageAmenities LE-FinishMgmt" style="fill:none;" marker-end="url(#my-svg_flowchart-pointEnd)"/><path d="M2061.949,524.398L2114.951,530.579C2167.953,536.76,2273.957,549.122,2326.959,560.003C2379.961,570.884,2379.961,580.284,2379.961,584.984L2379.961,589.684" id="L-SelectMgmt-ManageImages-0" class="edge-thickness-normal edge-pattern-solid flowchart-link LS-SelectMgmt LE-ManageImages" style="fill:none;" marker-end="url(#my-svg_flowchart-pointEnd)"/><path d="M2379.961,625.984L2379.961,630.234C2379.961,634.484,2379.961,642.984,2369.202,651.102C2358.442,659.22,2336.924,666.956,2326.164,670.824L2315.405,674.691" id="L-ManageImages-FinishMgmt-0" class="edge-thickness-normal edge-pattern-solid flowchart-link LS-ManageImages LE-FinishMgmt" style="fill:none;" marker-end="url(#my-svg_flowchart-pointEnd)"/><path d="M2008.775,528.484L2024.637,533.984C2040.499,539.484,2072.222,550.484,2088.084,560.684C2103.945,570.884,2103.945,580.284,2103.945,584.984L2103.945,589.684" id="L-SelectMgmt-ManageLocation-0" class="edge-thickness-normal edge-pattern-solid flowchart-link LS-SelectMgmt LE-ManageLocation" style="fill:none;" marker-end="url(#my-svg_flowchart-pointEnd)"/><path d="M2103.945,625.984L2103.945,630.234C2103.945,634.484,2103.945,642.984,2119.894,651.188C2135.843,659.393,2167.74,667.301,2183.689,671.255L2199.638,675.209" id="L-ManageLocation-FinishMgmt-0" class="edge-thickness-normal edge-pattern-solid flowchart-link LS-ManageLocation LE-FinishMgmt" style="fill:none;" marker-end="url(#my-svg_flowchart-pointEnd)"/><path d="M1919.663,528.484L1903.904,533.984C1888.145,539.484,1856.627,550.484,1840.868,560.684C1825.109,570.884,1825.109,580.284,1825.109,584.984L1825.109,589.684" id="L-SelectMgmt-ManageSource-0" class="edge-thickness-normal edge-pattern-solid flowchart-link LS-SelectMgmt LE-ManageSource" style="fill:none;" marker-end="url(#my-svg_flowchart-pointEnd)"/><path d="M1825.109,625.984L1825.109,630.234C1825.109,634.484,1825.109,642.984,1883.928,652.622C1942.747,662.259,2060.385,673.033,2119.204,678.42L2178.023,683.807" id="L-ManageSource-FinishMgmt-0" class="edge-thickness-normal edge-pattern-solid flowchart-link LS-ManageSource LE-FinishMgmt" style="fill:none;" marker-end="url(#my-svg_flowchart-pointEnd)"/><path d="M1866.199,524.858L1815.882,530.963C1765.565,537.067,1664.931,549.276,1614.614,560.08C1564.297,570.884,1564.297,580.284,1564.297,584.984L1564.297,589.684" id="L-SelectMgmt-ManageUsers-0" class="edge-thickness-normal edge-pattern-solid flowchart-link LS-SelectMgmt LE-ManageUsers" style="fill:none;" marker-end="url(#my-svg_flowchart-pointEnd)"/><path d="M1564.297,625.984L1564.297,630.234C1564.297,634.484,1564.297,642.984,1666.582,653.127C1768.868,663.27,1973.439,675.055,2075.724,680.948L2178.01,686.84" id="L-ManageUsers-FinishMgmt-0" class="edge-thickness-normal edge-pattern-solid flowchart-link LS-ManageUsers LE-FinishMgmt" style="fill:none;" marker-end="url(#my-svg_flowchart-pointEnd)"/><path d="M1866.199,519.529L1761.628,526.522C1657.057,533.514,1447.915,547.499,1313.308,559.837C1178.701,572.175,1118.628,582.865,1088.592,588.211L1058.556,593.556" id="L-SelectMgmt-ToVerify-0" class="edge-thickness-normal edge-pattern-solid flowchart-link LS-SelectMgmt LE-ToVerify" style="fill:none;" marker-end="url(#my-svg_flowchart-pointEnd)"/><path d="M362.625,616.423L541.029,622.267C719.432,628.11,1076.24,639.797,1378.803,651.668C1681.367,663.539,1929.687,675.594,2053.847,681.622L2178.007,687.649" id="L-FromVerify-FinishMgmt-0" class="edge-thickness-normal edge-pattern-solid flowchart-link LS-FromVerify LE-FinishMgmt" style="fill:none;" marker-end="url(#my-svg_flowchart-pointEnd)"/><path d="M1866.199,520.152L1772.132,527.041C1678.065,533.929,1489.931,547.707,1395.934,559.379C1301.938,571.051,1302.078,580.618,1302.149,585.402L1302.219,590.185" id="L-SelectMgmt-UpdateSemanticData-0" class="edge-thickness-normal edge-pattern-solid flowchart-link LS-SelectMgmt LE-UpdateSemanticData" style="fill:none;" marker-end="url(#my-svg_flowchart-pointEnd)"/><path d="M1302.297,626.484L1302.214,630.651C1302.13,634.818,1301.964,643.151,1447.915,653.443C1593.866,663.736,1885.936,675.987,2031.971,682.113L2178.005,688.239" id="L-UpdateSemanticData-FinishMgmt-0" class="edge-thickness-normal edge-pattern-solid flowchart-link LS-UpdateSemanticData LE-FinishMgmt" style="fill:none;" marker-end="url(#my-svg_flowchart-pointEnd)"/><path d="M2267.301,707.484L2267.301,711.651C2267.301,715.818,2267.301,724.151,2267.301,731.601C2267.301,739.051,2267.301,745.618,2267.301,748.901L2267.301,752.184" id="L-FinishMgmt-LogoutA-0" class="edge-thickness-normal edge-pattern-solid flowchart-link LS-FinishMgmt LE-LogoutA" style="fill:none;" marker-end="url(#my-svg_flowchart-pointEnd)"/><path d="M2267.301,788.484L2267.301,792.651C2267.301,796.818,2267.301,805.151,2267.301,813.484C2267.301,821.818,2267.301,830.151,2351.44,841.312C2435.579,852.473,2603.857,866.461,2687.996,873.456L2772.135,880.45" id="L-LogoutA-End-0" class="edge-thickness-normal edge-pattern-solid flowchart-link LS-LogoutA LE-End" style="fill:none;" marker-end="url(#my-svg_flowchart-pointEnd)"/></g><g class="edgeLabels"><g class="edgeLabel"><g class="label" transform="translate(0, 0)"><foreignObject width="0" height="0"><div xmlns="http://www.w3.org/1999/xhtml" style="display: inline-block; white-space: nowrap;"><span class="edgeLabel"></span></div></foreignObject></g></g><g class="edgeLabel" transform="translate(1964.07421875, 383.484375)"><g class="label" transform="translate(-25.453125, -8)"><foreignObject width="50.90625" height="16"><div xmlns="http://www.w3.org/1999/xhtml" style="display: inline-block; white-space: nowrap;"><span class="edgeLabel">Granted</span></div></foreignObject></g></g><g class="edgeLabel"><g class="label" transform="translate(0, 0)"><foreignObject width="0" height="0"><div xmlns="http://www.w3.org/1999/xhtml" style="display: inline-block; white-space: nowrap;"><span class="edgeLabel"></span></div></foreignObject></g></g><g class="edgeLabel" transform="translate(3142.44921875, 561.484375)"><g class="label" transform="translate(-21.65625, -8)"><foreignObject width="43.3125" height="16"><div xmlns="http://www.w3.org/1999/xhtml" style="display: inline-block; white-space: nowrap;"><span class="edgeLabel">Denied</span></div></foreignObject></g></g><g class="edgeLabel"><g class="label" transform="translate(0, 0)"><foreignObject width="0" height="0"><div xmlns="http://www.w3.org/1999/xhtml" style="display: inline-block; white-space: nowrap;"><span class="edgeLabel"></span></div></foreignObject></g></g><g class="edgeLabel"><g class="label" transform="translate(0, 0)"><foreignObject width="0" height="0"><div xmlns="http://www.w3.org/1999/xhtml" style="display: inline-block; white-space: nowrap;"><span class="edgeLabel"></span></div></foreignObject></g></g><g class="edgeLabel"><g class="label" transform="translate(0, 0)"><foreignObject width="0" height="0"><div xmlns="http://www.w3.org/1999/xhtml" style="display: inline-block; white-space: nowrap;"><span class="edgeLabel"></span></div></foreignObject></g></g><g class="edgeLabel"><g class="label" transform="translate(0, 0)"><foreignObject width="0" height="0"><div xmlns="http://www.w3.org/1999/xhtml" style="display: inline-block; white-space: nowrap;"><span class="edgeLabel"></span></div></foreignObject></g></g><g class="edgeLabel"><g class="label" transform="translate(0, 0)"><foreignObject width="0" height="0"><div xmlns="http://www.w3.org/1999/xhtml" style="display: inline-block; white-space: nowrap;"><span class="edgeLabel"></span></div></foreignObject></g></g><g class="edgeLabel"><g class="label" transform="translate(0, 0)"><foreignObject width="0" height="0"><div xmlns="http://www.w3.org/1999/xhtml" style="display: inline-block; white-space: nowrap;"><span class="edgeLabel"></span></div></foreignObject></g></g><g class="edgeLabel"><g class="label" transform="translate(0, 0)"><foreignObject width="0" height="0"><div xmlns="http://www.w3.org/1999/xhtml" style="display: inline-block; white-space: nowrap;"><span class="edgeLabel"></span></div></foreignObject></g></g><g class="edgeLabel"><g class="label" transform="translate(0, 0)"><foreignObject width="0" height="0"><div xmlns="http://www.w3.org/1999/xhtml" style="display: inline-block; white-space: nowrap;"><span class="edgeLabel"></span></div></foreignObject></g></g><g class="edgeLabel"><g class="label" transform="translate(0, 0)"><foreignObject width="0" height="0"><div xmlns="http://www.w3.org/1999/xhtml" style="display: inline-block; white-space: nowrap;"><span class="edgeLabel"></span></div></foreignObject></g></g><g class="edgeLabel"><g class="label" transform="translate(0, 0)"><foreignObject width="0" height="0"><div xmlns="http://www.w3.org/1999/xhtml" style="display: inline-block; white-space: nowrap;"><span class="edgeLabel"></span></div></foreignObject></g></g><g class="edgeLabel"><g class="label" transform="translate(0, 0)"><foreignObject width="0" height="0"><div xmlns="http://www.w3.org/1999/xhtml" style="display: inline-block; white-space: nowrap;"><span class="edgeLabel"></span></div></foreignObject></g></g><g class="edgeLabel"><g class="label" transform="translate(0, 0)"><foreignObject width="0" height="0"><div xmlns="http://www.w3.org/1999/xhtml" style="display: inline-block; white-space: nowrap;"><span class="edgeLabel"></span></div></foreignObject></g></g><g class="edgeLabel"><g class="label" transform="translate(0, 0)"><foreignObject width="0" height="0"><div xmlns="http://www.w3.org/1999/xhtml" style="display: inline-block; white-space: nowrap;"><span class="edgeLabel"></span></div></foreignObject></g></g><g class="edgeLabel"><g class="label" transform="translate(0, 0)"><foreignObject width="0" height="0"><div xmlns="http://www.w3.org/1999/xhtml" style="display: inline-block; white-space: nowrap;"><span class="edgeLabel"></span></div></foreignObject></g></g><g class="edgeLabel"><g class="label" transform="translate(0, 0)"><foreignObject width="0" height="0"><div xmlns="http://www.w3.org/1999/xhtml" style="display: inline-block; white-space: nowrap;"><span class="edgeLabel"></span></div></foreignObject></g></g><g class="edgeLabel"><g class="label" transform="translate(0, 0)"><foreignObject width="0" height="0"><div xmlns="http://www.w3.org/1999/xhtml" style="display: inline-block; white-space: nowrap;"><span class="edgeLabel"></span></div></foreignObject></g></g><g class="edgeLabel"><g class="label" transform="translate(0, 0)"><foreignObject width="0" height="0"><div xmlns="http://www.w3.org/1999/xhtml" style="display: inline-block; white-space: nowrap;"><span class="edgeLabel"></span></div></foreignObject></g></g><g class="edgeLabel"><g class="label" transform="translate(0, 0)"><foreignObject width="0" height="0"><div xmlns="http://www.w3.org/1999/xhtml" style="display: inline-block; white-space: nowrap;"><span class="edgeLabel"></span></div></foreignObject></g></g><g class="edgeLabel"><g class="label" transform="translate(0, 0)"><foreignObject width="0" height="0"><div xmlns="http://www.w3.org/1999/xhtml" style="display: inline-block; white-space: nowrap;"><span class="edgeLabel"></span></div></foreignObject></g></g><g class="edgeLabel"><g class="label" transform="translate(0, 0)"><foreignObject width="0" height="0"><div xmlns="http://www.w3.org/1999/xhtml" style="display: inline-block; white-space: nowrap;"><span class="edgeLabel"></span></div></foreignObject></g></g><g class="edgeLabel"><g class="label" transform="translate(0, 0)"><foreignObject width="0" height="0"><div xmlns="http://www.w3.org/1999/xhtml" style="display: inline-block; white-space: nowrap;"><span class="edgeLabel"></span></div></foreignObject></g></g><g class="edgeLabel"><g class="label" transform="translate(0, 0)"><foreignObject width="0" height="0"><div xmlns="http://www.w3.org/1999/xhtml" style="display: inline-block; white-space: nowrap;"><span class="edgeLabel"></span></div></foreignObject></g></g><g class="edgeLabel"><g class="label" transform="translate(0, 0)"><foreignObject width="0" height="0"><div xmlns="http://www.w3.org/1999/xhtml" style="display: inline-block; white-space: nowrap;"><span class="edgeLabel"></span></div></foreignObject></g></g></g><g class="nodes"><g class="node default decisionNode flowchart-label" id="flowchart-CheckPermission-6" data-node="true" data-id="CheckPermission" transform="translate(2484.03515625, 228.7421875)"><polygon points="121.7421875,0 243.484375,-121.7421875 121.7421875,-243.484375 0,-121.7421875" class="label-container" transform="translate(-121.7421875,121.7421875)" style=""/><g class="label" style="" transform="translate(-98.7421875, -8)"><rect/><foreignObject width="197.484375" height="16"><div xmlns="http://www.w3.org/1999/xhtml" style="display: inline-block; white-space: nowrap;"><span class="nodeLabel">Check Administrator Permission</span></div></foreignObject></g></g><g class="node default admin flowchart-label" id="flowchart-AdminDash-7" data-node="true" data-id="AdminDash" transform="translate(1964.07421875, 431.984375)"><rect class="basic label-container" style="" rx="0" ry="0" x="-103.09375" y="-15.5" width="206.1875" height="31"/><g class="label" style="" transform="translate(-95.59375, -8)"><rect/><foreignObject width="191.1875" height="16"><div xmlns="http://www.w3.org/1999/xhtml" style="display: inline-block; white-space: nowrap;"><span class="nodeLabel">Open Administrator Dashboard</span></div></foreignObject></g></g><g class="node default admin flowchart-label" id="flowchart-SelectMgmt-8" data-node="true" data-id="SelectMgmt" transform="translate(1964.07421875, 512.984375)"><rect class="basic label-container" style="" rx="0" ry="0" x="-97.875" y="-15.5" width="195.75" height="31"/><g class="label" style="" transform="translate(-90.375, -8)"><rect/><foreignObject width="180.75" height="16"><div xmlns="http://www.w3.org/1999/xhtml" style="display: inline-block; white-space: nowrap;"><span class="nodeLabel">Select Management Function</span></div></foreignObject></g></g><g class="node default admin flowchart-label" id="flowchart-ManageTypes-9" data-node="true" data-id="ManageTypes" transform="translate(3004.8671875, 610.484375)"><rect class="basic label-container" style="" rx="0" ry="0" x="-102.0703125" y="-15.5" width="204.140625" height="31"/><g class="label" style="" transform="translate(-94.5703125, -8)"><rect/><foreignObject width="189.140625" height="16"><div xmlns="http://www.w3.org/1999/xhtml" style="display: inline-block; white-space: nowrap;"><span class="nodeLabel">Manage Accommodation Types</span></div></foreignObject></g></g><g class="node default admin flowchart-label" id="flowchart-ManageRoomTypes-10" data-node="true" data-id="ManageRoomTypes" transform="translate(2783.3515625, 610.484375)"><rect class="basic label-container" style="" rx="0" ry="0" x="-69.4453125" y="-15.5" width="138.890625" height="31"/><g class="label" style="" transform="translate(-61.9453125, -8)"><rect/><foreignObject width="123.890625" height="16"><div xmlns="http://www.w3.org/1999/xhtml" style="display: inline-block; white-space: nowrap;"><span class="nodeLabel">Manage Room Types</span></div></foreignObject></g></g><g class="node default admin flowchart-label" id="flowchart-ManageAmenities-11" data-node="true" data-id="ManageAmenities" transform="translate(2600.203125, 610.484375)"><rect class="basic label-container" style="" rx="0" ry="0" x="-63.703125" y="-15.5" width="127.40625" height="31"/><g class="label" style="" transform="translate(-56.203125, -8)"><rect/><foreignObject width="112.40625" height="16"><div xmlns="http://www.w3.org/1999/xhtml" style="display: inline-block; white-space: nowrap;"><span class="nodeLabel">Manage Amenities</span></div></foreignObject></g></g><g class="node default admin flowchart-label" id="flowchart-ManageImages-12" data-node="true" data-id="ManageImages" transform="translate(2379.9609375, 610.484375)"><rect class="basic label-container" style="" rx="0" ry="0" x="-106.5390625" y="-15.5" width="213.078125" height="31"/><g class="label" style="" transform="translate(-99.0390625, -8)"><rect/><foreignObject width="198.078125" height="16"><div xmlns="http://www.w3.org/1999/xhtml" style="display: inline-block; white-space: nowrap;"><span class="nodeLabel">Manage Accommodation Images</span></div></foreignObject></g></g><g class="node default admin flowchart-label" id="flowchart-ManageLocation-13" data-node="true" data-id="ManageLocation" transform="translate(2103.9453125, 610.484375)"><rect class="basic label-container" style="" rx="0" ry="0" x="-119.4765625" y="-15.5" width="238.953125" height="31"/><g class="label" style="" transform="translate(-111.9765625, -8)"><rect/><foreignObject width="223.953125" height="16"><div xmlns="http://www.w3.org/1999/xhtml" style="display: inline-block; white-space: nowrap;"><span class="nodeLabel">Manage Coordinates and Landmarks</span></div></foreignObject></g></g><g class="node default admin flowchart-label" id="flowchart-ManageSource-14" data-node="true" data-id="ManageSource" transform="translate(1825.109375, 610.484375)"><rect class="basic label-container" style="" rx="0" ry="0" x="-109.359375" y="-15.5" width="218.71875" height="31"/><g class="label" style="" transform="translate(-101.859375, -8)"><rect/><foreignObject width="203.71875" height="16"><div xmlns="http://www.w3.org/1999/xhtml" style="display: inline-block; white-space: nowrap;"><span class="nodeLabel">Manage Data Source Information</span></div></foreignObject></g></g><g class="node default admin flowchart-label" id="flowchart-ManageUsers-15" data-node="true" data-id="ManageUsers" transform="translate(1564.296875, 610.484375)"><rect class="basic label-container" style="" rx="0" ry="0" x="-101.453125" y="-15.5" width="202.90625" height="31"/><g class="label" style="" transform="translate(-93.953125, -8)"><rect/><foreignObject width="187.90625" height="16"><div xmlns="http://www.w3.org/1999/xhtml" style="display: inline-block; white-space: nowrap;"><span class="nodeLabel">Manage Users and Permissions</span></div></foreignObject></g></g><g class="node default semantic flowchart-label" id="flowchart-UpdateSemanticData-16" data-node="true" data-id="UpdateSemanticData" transform="translate(1301.796875, 610.484375)"><polygon points="0,0 206.09375,0 206.09375,-31 0,-31 0,0 -8,0 214.09375,0 214.09375,-31 -8,-31 -8,0" class="label-container" transform="translate(-103.046875,15.5)" style=""/><g class="label" style="" transform="translate(-95.546875, -8)"><rect/><foreignObject width="191.09375" height="16"><div xmlns="http://www.w3.org/1999/xhtml" style="display: inline-block; white-space: nowrap;"><span class="nodeLabel">Update Semantic Search Index</span></div></foreignObject></g></g><g class="node default admin flowchart-label" id="flowchart-FinishMgmt-17" data-node="true" data-id="FinishMgmt" transform="translate(2267.30078125, 691.984375)"><rect class="basic label-container" style="" rx="0" ry="0" x="-84" y="-15.5" width="168" height="31"/><g class="label" style="" transform="translate(-76.5, -8)"><rect/><foreignObject width="153" height="16"><div xmlns="http://www.w3.org/1999/xhtml" style="display: inline-block; white-space: nowrap;"><span class="nodeLabel">Finish Data Management</span></div></foreignObject></g></g><g class="node default admin flowchart-label" id="flowchart-LogoutA-18" data-node="true" data-id="LogoutA" transform="translate(2267.30078125, 772.984375)"><rect class="basic label-container" style="" rx="0" ry="0" x="-28.671875" y="-15.5" width="57.34375" height="31"/><g class="label" style="" transform="translate(-21.171875, -8)"><rect/><foreignObject width="42.34375" height="16"><div xmlns="http://www.w3.org/1999/xhtml" style="display: inline-block; white-space: nowrap;"><span class="nodeLabel">Logout</span></div></foreignObject></g></g><g class="node default connector flowchart-label" id="flowchart-FromAuth-0" data-node="true" data-id="FromAuth" transform="translate(2484.03515625, 16)"><rect class="basic label-container" style="" rx="0" ry="0" x="-164.171875" y="-16" width="328.34375" height="32"/><g class="label" style="" transform="translate(-156.671875, -8.5)"><rect/><foreignObject width="313.34375" height="17"><div xmlns="http://www.w3.org/1999/xhtml" style="display: inline-block; white-space: nowrap;"><span class="nodeLabel">↩ From Fig. 3.3 — Check User Role: Administrator</span></div></foreignObject></g></g><g class="node default connector flowchart-label" id="flowchart-ToCRUD-1" data-node="true" data-id="ToCRUD" transform="translate(584.3671875, 610.484375)"><rect class="basic label-container" style="" rx="0" ry="0" x="-171.7421875" y="-16" width="343.484375" height="32"/><g class="label" style="" transform="translate(-164.2421875, -8.5)"><rect/><foreignObject width="328.484375" height="17"><div xmlns="http://www.w3.org/1999/xhtml" style="display: inline-block; white-space: nowrap;"><span class="nodeLabel">↪ Fig. 3.6 — Manage Accommodation Data Workflow</span></div></foreignObject></g></g><g class="node default connector flowchart-label" id="flowchart-ToVerify-2" data-node="true" data-id="ToVerify" transform="translate(963.4296875, 610.484375)"><rect class="basic label-container" style="" rx="0" ry="0" x="-157.3203125" y="-16" width="314.640625" height="32"/><g class="label" style="" transform="translate(-149.8203125, -8.5)"><rect/><foreignObject width="299.640625" height="17"><div xmlns="http://www.w3.org/1999/xhtml" style="display: inline-block; white-space: nowrap;"><span class="nodeLabel">↪ Fig. 3.7 — Data Quality Verification Workflow</span></div></foreignObject></g></g><g class="node default connector flowchart-label" id="flowchart-FromVerify-3" data-node="true" data-id="FromVerify" transform="translate(181.3125, 610.484375)"><rect class="basic label-container" style="" rx="0" ry="0" x="-181.3125" y="-16" width="362.625" height="32"/><g class="label" style="" transform="translate(-173.8125, -8.5)"><rect/><foreignObject width="347.625" height="17"><div xmlns="http://www.w3.org/1999/xhtml" style="display: inline-block; white-space: nowrap;"><span class="nodeLabel">↩ Returns from Fig. 3.7 after Save Verified Information</span></div></foreignObject></g></g><g class="node default connector flowchart-label" id="flowchart-FromCRUD-4" data-node="true" data-id="FromCRUD" transform="translate(3425.3984375, 610.484375)"><rect class="basic label-container" style="" rx="0" ry="0" x="-148.75" y="-16" width="297.5" height="32"/><g class="label" style="" transform="translate(-141.25, -8.5)"><rect/><foreignObject width="282.5" height="17"><div xmlns="http://www.w3.org/1999/xhtml" style="display: inline-block; white-space: nowrap;"><span class="nodeLabel">↩ Returns from Fig. 3.6 after each operation</span></div></foreignObject></g></g><g class="node default startend flowchart-label" id="flowchart-End-5" data-node="true" data-id="End" transform="translate(2796.328125, 882.4609375)"><circle style="" rx="0" ry="0" r="18.9765625" width="37.953125" height="31"/><g class="label" style="" transform="translate(-11.4765625, -8)"><rect/><foreignObject width="22.953125" height="16"><div xmlns="http://www.w3.org/1999/xhtml" style="display: inline-block; white-space: nowrap;"><span class="nodeLabel">End</span></div></foreignObject></g></g><g class="node default errorNode flowchart-label" id="flowchart-AccessDenied-19" data-node="true" data-id="AccessDenied" transform="translate(3379.9609375, 772.984375)"><rect class="basic label-container" style="" rx="0" ry="0" x="-103.3125" y="-15.5" width="206.625" height="31"/><g class="label" style="" transform="translate(-95.8125, -8)"><rect/><foreignObject width="191.625" height="16"><div xmlns="http://www.w3.org/1999/xhtml" style="display: inline-block; white-space: nowrap;"><span class="nodeLabel">Display Access Denied Message</span></div></foreignObject></g></g></g></g></g></svg>